<!-- sample rectangle -->
<svg width="208" height="158" viewBox="0 0 208 158" fill="none" xmlns="http://www.w3.org/2000/svg">
<path opacity="0.1" d="M159.714 42.885C153.109 18.1774 130.778 0 104.243 0C72.5003 0 46.7774 25.9964 46.7774 58.0551C46.7774 58.2938 46.7963 58.5229 46.7963 58.752C20.1001 61.9789 0 75.9652 0 92.7488C0 102.601 6.94574 111.489 18.0778 117.81C17.388 120.168 17.01 122.612 17.01 125.132C17.01 143.014 35.4091 157.515 58.1174 157.515C72.6137 157.515 85.3522 151.596 92.6665 142.67C104.885 151.902 120.979 157.515 138.622 157.515C176.819 157.515 207.786 131.233 207.786 98.8015C207.786 72.6238 187.601 50.4557 159.714 42.885Z" fill="#C6C6C6"/>
</svg>
