<svg width="215" height="208" viewBox="0 0 215 208" fill="none" xmlns="http://www.w3.org/2000/svg">
<path d="M107.489 0.111099C166.583 0.111099 214.489 46.6735 214.489 104.111C214.489 161.549 166.583 208.111 107.489 208.111C48.3945 208.111 0.488953 161.549 0.488953 104.111C0.488953 46.6735 48.3945 0.111099 107.489 0.111099Z" fill="#F472B7"/>
<path d="M127.461 148.194C127.461 144.311 124.416 146.1 120.421 146.1C116.426 146.1 112.995 144.304 112.995 148.194C112.995 152.083 116.234 155.224 120.228 155.224C124.223 155.231 127.461 152.083 127.461 148.194Z" fill="white"/>
<path d="M155.104 148.194C155.104 144.311 152.058 146.1 148.063 146.1C144.069 146.1 140.637 144.304 140.637 148.194C140.637 152.083 143.876 155.224 147.871 155.224C151.865 155.231 155.104 152.083 155.104 148.194Z" fill="white"/>
<path d="M148.234 130.146C148.234 122.561 141.906 116.411 134.102 116.411C126.299 116.411 119.971 122.561 119.971 130.146C119.971 137.731 126.299 129.619 134.102 129.619C141.906 129.619 148.234 137.731 148.234 130.146Z" fill="white"/>
</svg>
