<svg width="215" height="208" viewBox="0 0 215 208" fill="none" xmlns="http://www.w3.org/2000/svg">
<path d="M107.489 0.0551605C166.583 0.0551605 214.489 46.6176 214.489 104.055C214.489 161.493 166.583 208.055 107.489 208.055C48.3941 208.055 0.488556 161.493 0.488556 104.055C0.488556 46.6176 48.3941 0.0551605 107.489 0.0551605Z" fill="#F472B7"/>
<path d="M127.461 148.138C127.461 144.255 124.415 146.044 120.42 146.044C116.426 146.044 112.995 144.248 112.995 148.138C112.995 152.027 116.233 155.168 120.228 155.168C124.223 155.175 127.461 152.027 127.461 148.138Z" fill="white"/>
<path d="M155.103 148.138C155.103 144.255 152.057 146.044 148.063 146.044C144.068 146.044 140.637 144.248 140.637 148.138C140.637 152.027 143.876 155.168 147.87 155.168C151.865 155.175 155.103 152.027 155.103 148.138Z" fill="white"/>
<path d="M148.233 130.09C148.233 122.505 141.906 116.355 134.102 116.355C126.298 116.355 119.971 122.505 119.971 130.09C119.971 137.675 126.298 129.563 134.102 129.563C141.906 129.563 148.233 137.675 148.233 130.09Z" fill="white"/>
</svg>
