<svg width="89" height="87" viewBox="0 0 89 87" fill="none" xmlns="http://www.w3.org/2000/svg">
<path d="M44.9703 86.4035C69.3593 86.4035 89.1305 67.1867 89.1305 43.4815C89.1305 19.7763 69.3593 0.559418 44.9703 0.559418C20.5813 0.559418 0.810059 19.7763 0.810059 43.4815C0.810059 67.1867 20.5813 86.4035 44.9703 86.4035Z" fill="#FAD34F"/>
<path d="M53.2132 25.2881C53.2132 26.8905 51.9561 26.1522 50.3075 26.1522C48.6588 26.1522 47.2427 26.8934 47.2427 25.2881C47.2427 23.6828 48.5793 22.3865 50.228 22.3865C51.8766 22.3837 53.2132 23.6828 53.2132 25.2881Z" fill="white"/>
<path d="M64.6215 25.2881C64.6215 26.8905 63.3644 26.1522 61.7157 26.1522C60.0671 26.1522 58.651 26.8934 58.651 25.2881C58.651 23.6828 59.9876 22.3865 61.6362 22.3865C63.2849 22.3837 64.6215 23.6828 64.6215 25.2881Z" fill="white"/>
<path d="M61.7861 32.7366C61.7861 35.867 59.1748 38.4051 55.954 38.4051C52.7333 38.4051 50.1219 35.867 50.1219 32.7366C50.1219 29.6061 52.7333 32.954 55.954 32.954C59.1748 32.954 61.7861 29.6061 61.7861 32.7366Z" fill="white"/>
</svg>
