<svg width="246" height="186" viewBox="0 0 246 186" fill="none" xmlns="http://www.w3.org/2000/svg">
<path opacity="0.05" d="M188.806 51.0748C180.997 22.1634 154.6 0.89328 123.231 0.89328C85.7062 0.89328 55.2979 31.3127 55.2979 68.826C55.2979 69.1053 55.3203 69.3734 55.3203 69.6415C23.7614 73.4174 0 89.7833 0 109.422C0 120.951 8.21091 131.352 21.3707 138.747C20.5552 141.506 20.1083 144.366 20.1083 147.316C20.1083 168.239 41.8589 185.209 68.7035 185.209C85.8403 185.209 100.899 178.282 109.546 167.837C123.99 178.64 143.015 185.209 163.872 185.209C209.026 185.209 245.635 154.454 245.635 116.505C245.623 85.8734 221.762 59.9336 188.806 51.0748Z" fill="#C6C6C6"/>
</svg>
